{"title":"Rio: Rainbow Gate! (EngDub) 720p x264 Download ","magnet":"magnet:?xt=urn:btih:887a0c526078302ce21f3313e24cd8771efb91b5&dn=Rio%3A+Rainbow+Gate%21+%28EngDub%29+720p+x264+Download+&tr=udp%3A%2F%2Ftracker.leechers-paradise.org%3A6969&tr=udp%3A%2F%2Fzer0day.ch%3A1337&tr=udp%3A%2F%2Fopen.demonii.com%3A1337&tr=udp%3A%2F%2Ftracker.coppersurfer.tk%3A6969&tr=udp%3A%2F%2Fexodus.desync.com%3A6969","uploader":"digimaza","categoryP":"video","categoryS":"hd___tv_shows","size":"4000592060","seeders":"4","leechers":"4","description":"Rio: Rainbow Gate! (EngDub) 720p x264 Download  <a href=\"\nhttps://s14.postimg.org/53bo872f5/rio-rio-rainbow-gate-digimaza.jpg\" rel=\"nofollow\" target=\"_NEW\">\nhttps://s14.postimg.org/53bo872f5/rio-rio-rainbow-gate-digimaza.jpg</a>\r\n..::File Specs::.. \r\nGeneral \r\nFormat : Matroska \r\nFormat version : Version 4 / Version 2 \r\nDuration : 23 min 51 s \r\nOverall bit rate : 1 834 kb/s \r\n\r\nVideo \r\nID : 1 \r\nFormat : AVC \r\nFormat/Info : Advanced Video Codec \r\nFormat profile : <a class=\"__cf_email__\" href=\"/cdn-cgi/l/email-protection\" data-cfemail=\"3a72535d527a7609140b\">[email&#xA0;protected]</a><script data-cfhash=\"f9e31\" type=\"text/javascript\">/* <![CDATA[ */!function(t,e,r,n,c,a,p){try{t=document.currentScript||function(){for(t=document.getElementsByTagName('script'),e=t.length;e--;)if(t[e].getAttribute('data-cfhash'))return t[e]}();if(t&&(c=t.previousSibling)){p=t.parentNode;if(a=c.getAttribute('data-cfemail')){for(e='',r='0x'+a.substr(0,2)|0,n=2;a.length-n;n+=2)e+='%'+('0'+('0x'+a.substr(n,2)^r).toString(16)).slice(-2);p.replaceChild(document.createTextNode(decodeURIComponent(e)),c)}p.removeChild(t)}}catch(u){}}()/* ]]> */</script> \r\nFormat settings, CABAC : Yes \r\nFormat settings, ReFrames : 1 frame \r\nCodec ID : V_MPEG4/ISO/AVC \r\nDuration : 23 min 51 s \r\nBit rate : 1 640 kb/s \r\nWidth : 1 280 pixels \r\nHeight : 720 pixels \r\nDisplay aspect ratio : 16:9 \r\nFrame rate mode : Constant \r\nFrame rate : 23.976 (24000/1001) FPS \r\nColor space : YUV \r\nChroma subsampling : 4:2:0 \r\nBit depth : 8 bits \r\nScan type : Progressive \r\nBits/(Pixel*Frame) : 0.074 \r\nStream size : 280 MiB (89%) \r\nDefault : Yes \r\nForced : No \r\nColor range : Limited \r\n\r\nAudio \r\nID : 2 \r\nFormat : AAC \r\nFormat/Info : Advanced Audio Codec \r\nFormat profile : LC \r\nCodec ID : A_AAC \r\nDuration : 23 min 51 s \r\nBit rate : 192 kb/s \r\nChannel(s) : 2 channels \r\nChannel positions : Front: L R \r\nSampling rate : 44.1 kHz \r\nFrame rate : 43.066 FPS (1024 spf) \r\nCompression mode : Lossy \r\nStream size : 32.8 MiB (10%) \r\n\r\n..::ScreenShots::.. \r\n <a href=\"\nhttps://s22.postimg.org/3jyqz3af5/vlcsnap-2017-06-13-04h02m07s205.png\" rel=\"nofollow\" target=\"_NEW\">\nhttps://s22.postimg.org/3jyqz3af5/vlcsnap-2017-06-13-04h02m07s205.png</a>  <a href=\"\nhttps://s22.postimg.org/fn42mnlhd/vlcsnap-2017-06-13-04h02m17s039.png\" rel=\"nofollow\" target=\"_NEW\">\nhttps://s22.postimg.org/fn42mnlhd/vlcsnap-2017-06-13-04h02m17s039.png</a>  <a href=\"\nhttps://s22.postimg.org/b2hw7q1s1/vlcsnap-2017-06-13-04h02m42s411.png\" rel=\"nofollow\" target=\"_NEW\">\nhttps://s22.postimg.org/b2hw7q1s1/vlcsnap-2017-06-13-04h02m42s411.png</a> \r\n\r\n================================================================ \r\nSeed Seed Seed Seed Seed Seed Seed Seed Seed Seed Seed Seed Seed \r\nTo direct download or Watch Online this file, Visit. \r\nwww.DigiMaza.com \r\nSeed Seed Seed Seed Seed Seed Seed Seed Seed Seed Seed Seed Seed \r\n================================================================","last_updated":"2017-06-14T12:04:34.962Z","parsed":{"xt":"urn:btih:887a0c526078302ce21f3313e24cd8771efb91b5","dn":"Rio: Rainbow Gate! (EngDub) 720p x264 Download ","tr":["udp://exodus.desync.com:6969","udp://open.demonii.com:1337","udp://tracker.coppersurfer.tk:6969","udp://tracker.leechers-paradise.org:6969","udp://zer0day.ch:1337"],"infoHash":"887a0c526078302ce21f3313e24cd8771efb91b5","infoHashBuffer":{"type":"Buffer","data":[136,122,12,82,96,120,48,44,226,31,51,19,226,76,216,119,30,251,145,181]},"name":"Rio: Rainbow Gate! (EngDub) 720p x264 Download ","announce":["udp://exodus.desync.com:6969","udp://open.demonii.com:1337","udp://tracker.coppersurfer.tk:6969","udp://tracker.leechers-paradise.org:6969","udp://zer0day.ch:1337"],"urlList":[]}}